<?xml version="1.0" encoding="UTF-8" standalone="no"?>
<svg
   xmlns:dc="http://purl.org/dc/elements/1.1/"
   xmlns:cc="http://creativecommons.org/ns#"
   xmlns:rdf="http://www.w3.org/1999/02/22-rdf-syntax-ns#"
   xmlns:svg="http://www.w3.org/2000/svg"
   xmlns="http://www.w3.org/2000/svg"
   xmlns:sodipodi="http://sodipodi.sourceforge.net/DTD/sodipodi-0.dtd"
   xmlns:inkscape="http://www.inkscape.org/namespaces/inkscape"
   inkscape:version="1.0 (4035a4fb49, 2020-05-01)"
   id="svg8"
   version="1.1"
   viewBox="0 0 452 452"
   height="452mm"
   width="452mm">
  <defs
     id="defs2" />
  <sodipodi:namedview
     inkscape:window-maximized="1"
     inkscape:window-y="-12"
     inkscape:window-x="-12"
     inkscape:window-height="2050"
     inkscape:window-width="3840"
     fit-margin-bottom="0"
     fit-margin-right="0"
     fit-margin-left="0"
     fit-margin-top="0"
     showgrid="false"
     inkscape:document-rotation="0"
     inkscape:current-layer="g58"
     inkscape:document-units="mm"
     inkscape:cy="854.17323"
     inkscape:cx="855.6018"
     inkscape:zoom="0.7"
     inkscape:pageshadow="2"
     inkscape:pageopacity="0.0"
     borderopacity="1.0"
     bordercolor="#666666"
     pagecolor="#ffffff"
     id="base" />
  <metadata
     id="metadata5">
    <rdf:RDF>
      <cc:Work
         rdf:about="">
        <dc:format>image/svg+xml</dc:format>
        <dc:type
           rdf:resource="http://purl.org/dc/dcmitype/StillImage" />
        <dc:title></dc:title>
      </cc:Work>
    </rdf:RDF>
  </metadata>
  <g
     transform="translate(108.63997,95.57812)"
     id="layer1"
     inkscape:groupmode="layer"
     inkscape:label="Layer 1">
    <path
       style="fill:#225500;stroke:none;stroke-width:0.0352778"
       id="path26"
       d="m 66.064413,-95.155061 c -7.05556,1.552219 -16.72167,6.808609 -26.9875,14.604999 -4.445,3.42194 -12.52361,10.08944 -13.51139,11.21833 -0.635,0.70556 -0.635,0.70556 -3.98639,-0.67028 -17.1097197,-6.985 -35.34834,-8.67833 -48.11889,-4.48027 -16.33361,5.36222 -26.67,19.29694 -30.58583,41.169161 -0.91723,5.221111 -0.84667,14.9225 0.21166,19.967222 2.36361,11.571111 7.54945,21.20194 16.26306,30.30361 7.76111,8.07861 19.12055,15.875 30.55055,20.99028 2.2930603,1.05833 4.3038903,2.01083 4.4450103,2.11667 0.14111,0.14111 -1.65806,2.01083 -4.05695,4.16277 -5.7855603,5.29167 -22.6483303,22.36611 -28.3280603,28.68084 -28.43389,31.644159 -48.08361,61.524439 -59.61944,90.558049 -10.477503,26.38778 -13.299723,49.03611 -9.136943,73.48361 6.17361,36.44194 16.756943,63.00611 32.490833,81.49167 10.83028,12.73527 22.64833,20.53166 45.29666,29.845 16.51,6.77333 19.0147303,7.37305 30.8680603,7.33777 8.2197197,0 12.8763897,-0.45861 21.5194497,-2.11666 16.72166,-3.21028 38.13527,-10.23056 58.94916,-19.33223 4.23334,-1.86972 7.86695,-3.38666 8.07861,-3.38666 0.17639,0.0353 3.84528,2.61055 8.07861,5.78555 l 7.761117,5.75028 31.04444,-18.69722 c 17.10972,-10.30111 39.08778,-23.53028 48.895,-29.38639 10.26583,-6.13833 17.95639,-11.00667 18.16805,-11.39472 0.3175,-0.635 0.67028,-0.74083 2.99862,-0.74083 9.17222,-0.0353 17.35666,-6.10306 19.61444,-14.64028 0.635,-2.29306 0.59972,-6.91445 -0.0353,-9.31334 -1.41111,-5.29166 -5.22111,-9.94833 -10.33639,-12.52361 -6.42055,-3.24555 -15.02833,-2.68111 -21.09611,1.37584 l -2.36361,1.5875 h -23.70667 -23.70666 l -1.86972,-5.00945 c -3.73945,-10.08944 -7.97278,-18.80305 -11.14778,-22.86 -3.4925,-4.51555 -10.37167,-10.4775 -19.54389,-16.89805 -2.04611,-1.44639 -3.81,-2.71639 -3.95111,-2.82222 -0.14111,-0.14112 -0.0353,-5.3975 0.24694,-11.67695 0.28223,-6.31472 0.52917,-12.10028 0.52917,-12.91167 v -1.44638 l 4.33917,-1.86973 c 24.20055,-10.51277 44.66166,-20.955 55.98583,-28.575 14.88722,-10.05416 40.14611,-35.27777 68.68583,-68.650549 l 4.23333,-4.97417 0.42334,-2.78694 c 2.29305,-16.33361 0.84666,-27.44611 -4.19806,-32.03222 -2.89278,-2.57528 -6.17361,-3.59834 -11.64166,-3.4925 -4.48028,0.0353 -10.86556,1.27 -16.43945,3.175 l -3.95111,1.34055 -3.77472,4.58611 c -7.79639,9.38389 -16.61583,19.01472 -24.90611,27.19917 -11.99445,11.78278 -21.51945,18.94417 -28.46917,21.44889 -5.50333,1.97555 -16.08667,3.56305 -26.3525,3.98639 l -5.64444,0.21166 0.45861,-7.72583 c 0.35278,-6.56167 0.52917,-7.79639 1.05833,-8.18444 0.3175,-0.24695 2.61056,-1.69334 5.11528,-3.24556 8.74889,-5.3975 15.76917,-11.00667 20.03778,-16.01611 6.17361,-7.23195 8.81944,-17.35667 9.34861,-36.195 0.17639,-5.96194 -0.28222,-22.78944395 -0.67028,-24.800278 -0.0353,-0.176389 1.69333,-0.987778 3.81,-1.799166 10.51278,-4.056945 16.40417,-7.514167 20.81389,-12.276667 4.79778,-5.150555 7.19667,-14.216944 6.77333,-25.329442 -0.49387,-12.59417 -4.55081,-23.63611 -11.3947,-31.04445 -8.39611,-9.03111 -26.74056,-11.88861 -53.41055,-8.255 l -4.05695,0.56445 -4.02167,-2.18722 c -11.28888,-6.10306 -24.376937,-11.21834 -32.878877,-12.876389 -4.37445,-0.84667 -10.19528,-0.98778 -13.19389,-0.3175 z" />
    <g
       style="fill:#b3b3b3"
       transform="matrix(-8.5422619,0,0,8.6683169,343.11718,53.643962)"
       id="g58">
      <g
         id="g64">
        <path
           id="path38"
           d="M 16.12,1.929 5.229,7.505 0.9,5.375 11.599,0.092 c 0.24,-0.122 0.528,-0.122 0.78,0 z"
           style="fill:#b3b3b3" />
        <path
           id="path40"
           d="M 23.088,5.375 12.006,10.865 7.856,8.82 7.256,8.515 18.159,2.94 l 0.6,0.304 z"
           style="fill:#b3b3b3" />
        <path
           id="path42"
           d="M 11.118,12.447 11.106,24 0.492,18.461 C 0.192,18.303 0,17.986 0,17.645 V 6.957 l 4.498,2.216 v 3.896 c 0,0.499 0.408,0.913 0.9,0.913 0.492,0 0.9,-0.414 0.9,-0.913 v -2.995 l 0.6,0.292 z"
           style="fill:#b3b3b3" />
        <path
           id="path44"
           d="M 23.988,6.969 12.918,12.435 12.906,23.988 24,18.195 Z"
           style="fill:#b3b3b3" />
      </g>
    </g>
  </g>
</svg>
