<?xml version="1.0" encoding="UTF-8" standalone="no"?>
<svg
   xmlns:dc="http://purl.org/dc/elements/1.1/"
   xmlns:cc="http://creativecommons.org/ns#"
   xmlns:rdf="http://www.w3.org/1999/02/22-rdf-syntax-ns#"
   xmlns:svg="http://www.w3.org/2000/svg"
   xmlns="http://www.w3.org/2000/svg"
   xmlns:sodipodi="http://sodipodi.sourceforge.net/DTD/sodipodi-0.dtd"
   xmlns:inkscape="http://www.inkscape.org/namespaces/inkscape"
   version="1.1"
   id="Ebene_1"
   x="0px"
   y="0px"
   viewBox="0 0 350 120"
   style="enable-background:new 0 0 350 120;"
   xml:space="preserve"
   sodipodi:docname="keepoala-widget-warenkorb.svg"
   inkscape:version="1.0 (4035a4fb49, 2020-05-01)"><metadata
   id="metadata46"><rdf:RDF><cc:Work
       rdf:about=""><dc:format>image/svg+xml</dc:format><dc:type
         rdf:resource="http://purl.org/dc/dcmitype/StillImage" /><dc:title></dc:title></cc:Work></rdf:RDF></metadata><defs
   id="defs44"><rect
     id="rect882"
     height="46.028647"
     width="216.01562"
     y="36.762153"
     x="124.41406" /></defs><sodipodi:namedview
   inkscape:document-rotation="0"
   pagecolor="#ffffff"
   bordercolor="#666666"
   borderopacity="1"
   objecttolerance="10"
   gridtolerance="10"
   guidetolerance="10"
   inkscape:pageopacity="0"
   inkscape:pageshadow="2"
   inkscape:window-width="3840"
   inkscape:window-height="2050"
   id="namedview42"
   showgrid="false"
   inkscape:zoom="6.5828571"
   inkscape:cx="163.96505"
   inkscape:cy="113.72106"
   inkscape:window-x="-12"
   inkscape:window-y="-12"
   inkscape:window-maximized="1"
   inkscape:current-layer="g39" />
<style
   type="text/css"
   id="style29">
	.st0{fill:#008EBD;}
</style>
<g
   id="g39">
	
	
	
	
<rect
   y="-7.4435759"
   x="-2.8862848"
   height="143.25087"
   width="377.49567"
   id="rect878"
   style="fill:#00aa00;stroke-width:50" /><path
   id="path62"
   d="m 64.511005,19.306006 c -1.13125,0.248877 -2.68106,1.091653 -4.32704,2.341689 -0.71269,0.54866 -2.00797,1.617693 -2.16635,1.798696 -0.10175,0.113176 -0.10175,0.113176 -0.63915,-0.107541 -2.74331,-1.119954 -5.66759,-1.391451 -7.71517,-0.71836 -2.618844,0.85976 -4.276123,3.093986 -4.903979,6.60087 -0.147143,0.837124 -0.135714,2.39261 0.03397,3.201449 0.378969,1.855252 1.210449,3.39942 2.607546,4.85873 1.244373,1.295291 3.065683,2.545327 4.898323,3.365483 0.36765,0.169686 0.69007,0.322402 0.71269,0.339371 0.0227,0.0227 -0.26584,0.322418 -0.65047,0.667439 -0.92763,0.848443 -3.63133,3.586075 -4.54198,4.598552 -4.558963,5.073671 -7.709508,9.864526 -9.559094,14.51965 -1.679914,4.230879 -2.132416,7.862208 -1.464972,11.782003 0.989842,5.842921 2.686724,10.102101 5.209413,13.065971 1.736478,2.041907 3.631333,3.291945 7.262643,4.78521 2.64714,1.085996 3.04873,1.182156 4.94924,1.176491 1.31791,0 2.06454,-0.07357 3.45033,-0.339367 2.68107,-0.514726 6.11443,-1.640317 9.45163,-3.099638 0.67874,-0.299785 1.26133,-0.542991 1.29527,-0.542991 0.0283,0.0063 0.61654,0.418559 1.29529,0.927612 l 1.24437,0.921988 4.97753,-2.997826 c 2.74328,-1.651633 6.26713,-3.772729 7.83959,-4.711666 1.64597,-0.98419 2.87904,-1.764759 2.91298,-1.826982 0.0509,-0.101748 0.10739,-0.118811 0.48077,-0.118811 1.47064,-0.0063 2.78289,-0.97854 3.14489,-2.347356 0.10175,-0.367656 0.0961,-1.108621 -0.006,-1.493246 -0.22624,-0.848443 -0.83712,-1.595074 -1.65727,-2.007985 -1.02944,-0.520374 -2.40957,-0.429865 -3.38246,0.220591 l -0.37896,0.254543 h -3.80101 -3.80102 l -0.29978,-0.803187 c -0.59956,-1.617693 -1.27833,-3.014796 -1.78738,-3.665267 -0.55997,-0.724012 -1.66294,-1.679916 -3.13357,-2.709361 -0.32807,-0.231894 -0.61088,-0.435532 -0.6335,-0.4525 -0.0227,-0.0227 -0.006,-0.865396 0.0396,-1.872221 0.0452,-1.012477 0.0848,-1.940095 0.0848,-2.070192 v -0.231909 l 0.69573,-0.299783 c 3.8802,-1.685567 7.16083,-3.359817 8.97649,-4.581583 2.38695,-1.612026 6.43684,-5.656267 11.01275,-11.007085 l 0.67876,-0.797536 0.0679,-0.446849 c 0.36766,-2.618852 0.13573,-4.40058 -0.67308,-5.135894 -0.46382,-0.412911 -0.98985,-0.57693 -1.86657,-0.559961 -0.71835,0.0063 -1.74213,0.203623 -2.63582,0.509056 l -0.63351,0.21494 -0.60521,0.735314 c -1.25004,1.504564 -2.66411,3.048732 -3.99334,4.360976 -1.92312,1.889205 -3.45033,3.03743 -4.56459,3.439024 -0.88239,0.316751 -2.57927,0.57128 -4.22525,0.639154 l -0.905,0.03397 0.0736,-1.238719 c 0.0565,-1.052065 0.0849,-1.250036 0.16969,-1.312259 0.0509,-0.0396 0.41856,-0.271497 0.82015,-0.520374 1.40276,-0.86541 2.52835,-1.764759 3.21276,-2.567946 0.98985,-1.159543 1.41406,-2.782887 1.49891,-5.803334 0.0283,-0.955904 -0.0452,-3.653948 -0.10738,-3.97635 -0.006,-0.02833 0.27149,-0.158384 0.61086,-0.288481 1.68558,-0.650471 2.63017,-1.204782 3.33722,-1.968382 0.76925,-0.825807 1.15387,-2.279465 1.086,-4.061193 -0.0792,-2.019287 -0.72967,-3.789697 -1.82699,-4.977526 -1.34617,-1.447989 -4.28743,-1.906155 -8.56357,-1.323558 l -0.65046,0.09048 -0.64483,-0.350689 c -1.81,-0.978539 -3.90847,-1.798696 -5.27164,-2.064541 -0.70138,-0.135717 -1.63466,-0.158384 -2.11544,-0.05087 z"
   style="stroke-width:0.00565625" /><text
   transform="translate(-7.2916667,1.8229167)"
   style="font-style:normal;font-weight:normal;font-size:40px;line-height:1.25;font-family:sans-serif;white-space:pre;shape-inside:url(#rect882);fill:#000000;fill-opacity:1;stroke:none;"
   id="text880"
   xml:space="preserve"><tspan
     x="124.41406"
     y="73.254931"><tspan>HINWEIS</tspan></tspan></text></g>
</svg>
