<?xml version="1.0" encoding="UTF-8" standalone="no"?>
<svg
   xmlns:dc="http://purl.org/dc/elements/1.1/"
   xmlns:cc="http://creativecommons.org/ns#"
   xmlns:rdf="http://www.w3.org/1999/02/22-rdf-syntax-ns#"
   xmlns:svg="http://www.w3.org/2000/svg"
   xmlns="http://www.w3.org/2000/svg"
   xmlns:sodipodi="http://sodipodi.sourceforge.net/DTD/sodipodi-0.dtd"
   xmlns:inkscape="http://www.inkscape.org/namespaces/inkscape"
   inkscape:version="1.0 (4035a4fb49, 2020-05-01)"
   sodipodi:docname="keepoala-widget.svg"
   xml:space="preserve"
   style="enable-background:new 0 0 350 120;"
   viewBox="0 0 350 120"
   y="0px"
   x="0px"
   id="Ebene_1"
   version="1.1"><metadata
   id="metadata46"><rdf:RDF><cc:Work
       rdf:about=""><dc:format>image/svg+xml</dc:format><dc:type
         rdf:resource="http://purl.org/dc/dcmitype/StillImage" /></cc:Work></rdf:RDF></metadata><defs
   id="defs44" /><sodipodi:namedview
   inkscape:current-layer="g39"
   inkscape:window-maximized="1"
   inkscape:window-y="-12"
   inkscape:window-x="-12"
   inkscape:cy="113.72106"
   inkscape:cx="163.96505"
   inkscape:zoom="6.5828571"
   showgrid="false"
   id="namedview42"
   inkscape:window-height="2050"
   inkscape:window-width="3840"
   inkscape:pageshadow="2"
   inkscape:pageopacity="0"
   guidetolerance="10"
   gridtolerance="10"
   objecttolerance="10"
   borderopacity="1"
   bordercolor="#666666"
   pagecolor="#ffffff" />
<style
   id="style29"
   type="text/css">
	.st0{fill:#008EBD;}
</style>
<g
   id="g39">
	
	
	
	
<path
   style="stroke-width:0.0081267"
   d="m 171.31751,6.4233474 c -1.62535,0.3575777 -3.85206,1.568448 -6.21694,3.3644558 -1.02397,0.7882948 -2.88498,2.3242438 -3.11254,2.5843028 -0.14619,0.162607 -0.14619,0.162607 -0.91831,-0.154511 -3.94148,-1.609111 -8.14299,-1.999187 -11.08487,-1.032115 -3.76267,1.235273 -6.14379,4.44533 -7.04587,9.483895 -0.21141,1.202751 -0.19499,3.437617 0.0488,4.599728 0.54449,2.665561 1.73913,4.884167 3.74643,6.980851 1.78787,1.861028 4.40467,3.657036 7.03773,4.835407 0.52824,0.243798 0.99148,0.463216 1.02398,0.487596 0.0326,0.03261 -0.38196,0.463239 -0.93458,0.958953 -1.33279,1.219012 -5.21736,5.152345 -6.52575,6.607036 -6.55016,7.289669 -11.07675,14.173 -13.73417,20.861316 -2.41364,6.078777 -3.06378,11.296141 -2.10482,16.927963 1.42217,8.394901 3.86019,14.51434 7.4847,18.772725 2.49491,2.93374 5.21737,4.72975 10.43471,6.87522 3.80332,1.56032 4.38031,1.69848 7.11089,1.69034 1.89353,0 2.96626,-0.1057 4.95731,-0.48759 3.85207,-0.73954 8.785,-2.35675 13.57977,-4.45345 0.97519,-0.43072 1.81224,-0.78015 1.861,-0.78015 0.0407,0.009 0.88582,0.60137 1.86103,1.33276 l 1.78787,1.32468 7.15153,-4.30717 c 3.94145,-2.37301 9.00439,-5.420526 11.26364,-6.769556 2.36488,-1.41405 4.13651,-2.535543 4.18527,-2.624943 0.0731,-0.146189 0.15429,-0.170704 0.69075,-0.170704 2.11297,-0.009 3.99836,-1.405931 4.51847,-3.372597 0.14619,-0.528236 0.1381,-1.592828 -0.009,-2.145444 -0.32506,-1.219012 -1.20275,-2.291745 -2.38112,-2.885001 -1.47905,-0.747655 -3.46198,-0.617614 -4.85979,0.316937 l -0.54448,0.365719 h -5.46116 -5.46116 l -0.43072,-1.153991 c -0.86143,-2.324244 -1.83665,-4.331551 -2.56804,-5.266125 -0.80455,-1.040234 -2.38926,-2.413644 -4.50221,-3.892714 -0.47136,-0.333176 -0.87769,-0.625756 -0.91019,-0.650135 -0.0326,-0.03261 -0.009,-1.24337 0.0569,-2.689941 0.065,-1.454691 0.1219,-2.78746 0.1219,-2.974379 v -0.333198 l 0.99959,-0.430717 c 5.57494,-2.421763 10.28843,-4.827266 12.89711,-6.582656 3.42948,-2.316102 9.24822,-8.126723 15.82273,-15.814588 l 0.97522,-1.145872 0.0976,-0.642017 c 0.52824,-3.762673 0.195,-6.322596 -0.96707,-7.379069 -0.66639,-0.593256 -1.42217,-0.828913 -2.68182,-0.804533 -1.03209,0.009 -2.50302,0.292558 -3.78705,0.731394 l -0.9102,0.308818 -0.86955,1.056473 c -1.79601,2.161704 -3.82769,4.38031 -5.73748,6.265695 -2.76308,2.714343 -4.95731,4.364072 -6.55825,4.941068 -1.26778,0.455097 -3.7058,0.820794 -6.07068,0.918313 l -1.30027,0.0488 0.1057,-1.779747 c 0.0812,-1.511569 0.1219,-1.796007 0.2438,-1.885407 0.0731,-0.0569 0.60137,-0.390077 1.17837,-0.747655 2.01543,-1.243391 3.63263,-2.535543 4.61597,-3.689534 1.42219,-1.66599 2.03168,-3.998353 2.15358,-8.338023 0.0407,-1.37341 -0.065,-5.249863 -0.15428,-5.713079 -0.009,-0.04071 0.39007,-0.22756 0.87767,-0.414479 2.42178,-0.934574 3.77893,-1.730988 4.79479,-2.828101 1.10523,-1.18649 1.65785,-3.275055 1.56033,-5.834978 -0.11381,-2.90124 -1.04836,-5.444902 -2.62495,-7.151532 C 194.16119,9.6576727 189.9353,8.9993959 183.7915,9.8364503 l -0.93457,0.1299955 -0.92646,-0.5038564 c -2.60054,-1.4059311 -5.61556,-2.5843025 -7.57411,-2.9662601 -1.00771,-0.1949933 -2.34862,-0.2275596 -3.03939,-0.073094 z"
   id="path62" /></g>
</svg>
